# xmcd CD database file
#
# Track frame offsets:
#	150
#	27600
#	59472
#	76347
#	103422
#	120147
#	153822
#
# Disc length: 2385 seconds
#
# Revision: 0
# Processed by: cddbd v1.5.1PL0 Copyright (c) Steve Scherf et al.
# Submitted via: CDex 1.51
#
DISCID=50094f07
DTITLE=Frank Vardalos and Future Reference - Funky Talk
DYEAR=1994
DGENRE=Jazz
TTITLE0=Future Reference
TTITLE1=City Jam
TTITLE2=They're All For You
TTITLE3=Funky Talk
TTITLE4=Cia's Song
TTITLE5=Playtime
TTITLE6=Tiger Blues
EXTD=YEAR: 1994
EXTT0=
EXTT1=
EXTT2=
EXTT3=
EXTT4=
EXTT5=
EXTT6=
PLAYORDER=
